<!DOCTYPE svg PUBLIC "-//W3C//DTD SVG 1.1//EN" "http://www.w3.org/Graphics/SVG/1.1/DTD/svg11.dtd">
<!-- Uploaded to: SVG Repo, www.svgrepo.com, Transformed by: SVG Repo Mixer Tools -->
<svg height="800px" width="800px" version="1.1" id="Layer_1" xmlns="http://www.w3.org/2000/svg" xmlns:xlink="http://www.w3.org/1999/xlink" viewBox="0 0 512 512" xml:space="preserve" fill="#000000" transform="rotate(0)matrix(-1, 0, 0, -1, 0, 0)" stroke="#000000" stroke-width="0.00512">
<g id="SVGRepo_bgCarrier" stroke-width="0"/>
<g id="SVGRepo_tracerCarrier" stroke-linecap="round" stroke-linejoin="round"/>
<g id="SVGRepo_iconCarrier"> <path style="fill:#f070aa;" d="M384.609,173.005l37.95-37.95l43.828,43.828L512,133.271l-43.828-43.828L512,45.614L466.387,0.001 l-43.828,43.828L378.73,0.001l-45.613,45.613l43.828,43.828l-37.95,37.95c-83.293-61.244-201.407-54.219-276.708,21.082 c-83.051,83.051-83.051,218.187,0,301.237s218.187,83.051,301.237,0C438.826,374.412,445.853,256.297,384.609,173.005z M107.902,404.1c-57.9-57.9-57.9-152.111,0-210.011s152.111-57.9,210.013,0c57.9,57.9,57.9,152.111,0,210.011 S165.803,461.999,107.902,404.1z"/> </g>
</svg>